<svg
  width="128"
  height="128"
  viewBox="0 0 128 128"
  fill="none"
  xmlns="http://www.w3.org/2000/svg"
>
  <rect
    width="128"
    height="128"
    rx="32"
    fill="#F03232"
  />
  <path
    d="M70.5208 73.2917C63.8814 67.8702 59.6436 59.626 59.6436 50.3896C59.6436 45.7486 60.8069 41.4147 62.714 37.5043L58.152 32.9504L30.4395 60.643C35.5915 64.6946 35.0721 68.6548 29.0435 72.5154L66.0669 109.503H84.2108C86.5458 109.503 88.4404 111.395 88.4404 113.728V117.954H68.6304L68.5847 118L68.539 117.954H37.7187V113.733C37.7187 111.4 39.6133 109.507 41.9483 109.507H60.0923L25.1671 74.6159C18.266 77.5716 14.859 74.7156 15.0045 65.9399C15.1623 56.6039 19.1219 54.1132 26.7999 58.3142L55.173 29.9657L52.3644 27.1637C50.7149 25.5198 50.7149 22.8423 52.3644 21.1943L61.3304 12.236C62.9799 10.588 65.6597 10.588 67.3092 12.236L78.1116 23.0374C81.5518 21.6385 85.2952 20.8373 89.2381 20.8373C98.9687 20.8373 107.611 25.0092 112.999 32.2614C113.182 32.307 70.6745 73.3581 70.5208 73.2917ZM103.231 46.8735C103.231 46.8735 110.365 55.8442 103.231 62.9718C96.0977 70.0994 87.2065 62.8847 87.2065 62.8847L103.231 46.8735Z"
    fill="white"
  />
</svg>